<svg xmlns="http://www.w3.org/2000/svg" viewBox="0 0 1200 500" width="1200" height="500">
  <defs>
    <linearGradient id="slide3" x1="0%" y1="100%" x2="100%" y2="0%">
      <stop offset="0%" style="stop-color:#1f3320"/>
      <stop offset="40%" style="stop-color:#2d4a2d"/>
      <stop offset="100%" style="stop-color:#335233"/>
    </linearGradient>
    <linearGradient id="g3" x1="0%" y1="0%" x2="100%" y2="0%">
      <stop offset="0%" style="stop-color:#6F9435;stop-opacity:0.3"/>
      <stop offset="100%" style="stop-color:#EDD330;stop-opacity:0.15"/>
    </linearGradient>
    <filter id="blur3"><feGaussianBlur stdDeviation="35"/></filter>
    <circle id="c1" cx="300" cy="200" r="110" fill="#EDD330" opacity="0.1" filter="url(#blur3)"/>
    <circle id="c2" cx="950" cy="320" r="90" fill="#A7B92A" opacity="0.12" filter="url(#blur3)"/>
    <circle id="c3" cx="700" cy="80" r="60" fill="#6F9435" opacity="0.1" filter="url(#blur3)"/>
  </defs>
  <rect width="1200" height="500" fill="url(#slide3)"/>
  <use href="#c1"/>
  <use href="#c2"/>
  <use href="#c3"/>
  <g transform="translate(100, 140)" opacity="0.15">
    <rect x="0" y="0" width="200" height="220" rx="12" fill="none" stroke="#6F9435" stroke-width="1.5"/>
    <rect x="20" y="30" width="160" height="8" rx="4" fill="#A7B92A"/>
    <rect x="20" y="50" width="120" height="6" rx="3" fill="#d4dc9a"/>
    <rect x="20" y="65" width="140" height="6" rx="3" fill="#d4dc9a"/>
    <rect x="20" y="85" width="80" height="8" rx="4" fill="#6F9435"/>
    <rect x="20" y="120" width="70" height="40" rx="6" fill="#A7B92A" opacity="0.5"/>
    <rect x="105" y="120" width="75" height="40" rx="6" fill="#EDD330" opacity="0.3"/>
  </g>
  <g transform="translate(650, 100)" opacity="0.1">
    <circle cx="0" cy="0" r="100" fill="none" stroke="#A7B92A" stroke-width="1"/>
    <circle cx="0" cy="0" r="80" fill="none" stroke="#EDD330" stroke-width="0.5"/>
    <line x1="0" y1="-80" x2="0" y2="80" stroke="#6F9435" stroke-width="0.5"/>
    <line x1="-80" y1="0" x2="80" y2="0" stroke="#6F9435" stroke-width="0.5"/>
    <line x1="-57" y1="-57" x2="57" y2="57" stroke="#6F9435" stroke-width="0.5"/>
    <line x1="57" y1="-57" x2="-57" y2="57" stroke="#6F9435" stroke-width="0.5"/>
  </g>
  <line x1="80" y1="440" x2="400" y2="440" stroke="url(#g3)" stroke-width="3" stroke-linecap="round"/>
  <text x="100" y="200" font-family="Instrument Sans, sans-serif" font-size="16" font-weight="600" fill="#A7B92A" opacity="0.8" letter-spacing="2">SISKOPRAMPA</text>
  <text x="100" y="260" font-family="Instrument Sans, sans-serif" font-size="40" font-weight="800" fill="#f0ead8" opacity="0.95">Sistem Informasi</text>
  <text x="100" y="310" font-family="Instrument Sans, sans-serif" font-size="40" font-weight="800" fill="#EDD330" opacity="0.9">Digital Kepramukaan</text>
  <text x="100" y="360" font-family="Instrument Sans, sans-serif" font-size="17" font-weight="500" fill="#d4dc9a" opacity="0.7">SKU, presensi, kas, inventaris — terintegrasi dan transparan</text>
  <rect x="1050" y="60" width="80" height="80" rx="16" fill="none" stroke="#6F9435" stroke-width="1" opacity="0.1"/>
  <rect x="1070" y="80" width="40" height="40" rx="8" fill="#A7B92A" opacity="0.08"/>
</svg>